<?xml version="1.0" encoding="UTF-8"?>
<svg version="1.1" xmlns="http://www.w3.org/2000/svg" width="512" height="512">
<path d="M0 0 C0.67979098 -0.00235223 1.35958196 -0.00470446 2.05997267 -0.00712797 C4.35447271 -0.01382352 6.64891619 -0.01335958 8.94342518 -0.01294994 C10.59848343 -0.01624822 12.25354088 -0.01997371 13.90859729 -0.02409142 C18.46980822 -0.03412362 23.03100599 -0.03783017 27.59222639 -0.04048073 C32.50648871 -0.04438016 37.42074057 -0.05395873 42.33499622 -0.0626936 C54.20930246 -0.08246801 66.08360956 -0.09252536 77.95792815 -0.10142139 C83.54705611 -0.1058026 89.13618312 -0.11116983 94.72531033 -0.11641026 C113.3001352 -0.13342334 131.87495948 -0.14791818 150.44979095 -0.155159 C155.27146563 -0.15706895 160.09314029 -0.15898928 164.91481495 -0.16094494 C166.1132471 -0.16142868 167.31167925 -0.16191242 168.54642753 -0.16241082 C187.96630723 -0.17071359 207.38612538 -0.19605434 226.8059782 -0.22852562 C246.73501175 -0.26157715 266.66401399 -0.27960602 286.5930751 -0.28280324 C297.786127 -0.28497008 308.97908915 -0.29374419 320.17211437 -0.31926441 C329.70337437 -0.34094534 339.23452281 -0.34903467 348.76580467 -0.33929763 C353.62956881 -0.3347454 358.49310265 -0.33669274 363.35683537 -0.35605907 C367.81000037 -0.37363763 372.26276616 -0.37273629 376.71593509 -0.35716178 C378.32634532 -0.35477763 379.93678281 -0.35915102 381.54715129 -0.37099043 C396.67772858 -0.47533385 396.67772858 -0.47533385 403.37502003 4.13422108 C407.1671482 8.89868981 408.75406399 12.80690228 408.65236378 18.94281483 C407.95923458 24.41951176 405.57775643 28.17694108 401.31252003 31.57172108 C396.86674545 33.93649479 393.73479334 34.26110848 388.75004005 34.26844215 C388.07024907 34.27079438 387.39045809 34.27314661 386.69006738 34.27557012 C384.39556735 34.28226567 382.10112387 34.28180174 379.80661488 34.2813921 C378.15155662 34.28469038 376.49649918 34.28841587 374.84144276 34.29253358 C370.28023184 34.30256577 365.71903407 34.30627233 361.15781367 34.30892289 C356.24355135 34.31282231 351.32929949 34.32240089 346.41504383 34.33113575 C334.54073759 34.35091017 322.66643049 34.36096751 310.7921119 34.36986354 C305.20298394 34.37424475 299.61385694 34.37961198 294.02472973 34.38485241 C275.44990485 34.4018655 256.87508057 34.41636034 238.3002491 34.42360115 C233.47857443 34.42551111 228.65689976 34.42743143 223.83522511 34.42938709 C222.63679296 34.42987083 221.4383608 34.43035457 220.20361253 34.43085297 C200.78373283 34.43915575 181.36391467 34.4644965 161.94406185 34.49696777 C142.01502831 34.5300193 122.08602606 34.54804818 102.15696496 34.55124539 C90.96391305 34.55341223 79.77095091 34.56218634 68.57792568 34.58770657 C59.04666568 34.6093875 49.51551724 34.61747682 39.98423538 34.60773978 C35.12047125 34.60318756 30.25693741 34.60513489 25.39320469 34.62450123 C20.94003969 34.64207978 16.48727389 34.64117845 12.03410497 34.62560394 C10.42369473 34.62321978 8.81325724 34.62759317 7.20288876 34.63943259 C-7.92768852 34.743776 -7.92768852 34.743776 -14.62497997 30.13422108 C-18.41710815 25.36975234 -20.00402393 21.46153987 -19.90232372 15.32562733 C-19.20919452 9.8489304 -16.82771638 6.09150107 -12.56247997 2.69672108 C-8.11670539 0.33194736 -4.98475329 0.00733367 0 0 Z " fill="#ffffff" transform="translate(61.624979972839355,238.86577892303467)"/>
<path d="M0 0 C5.28410649 2.75642784 8.08002087 6.76740637 9.9296875 12.31640625 C10.02538171 13.99672088 10.06506043 15.68050051 10.0715332 17.36352539 C10.07856766 18.39212173 10.08560211 19.42071808 10.09284973 20.48048401 C10.09701401 21.59293991 10.10117828 22.70539581 10.10546875 23.8515625 C10.12867888 26.21159734 10.15279669 28.5716234 10.17773438 30.93164062 C10.21275284 34.6487404 10.24213897 38.36551952 10.25561523 42.08276367 C10.27117499 45.67275914 10.31144997 49.26181738 10.35546875 52.8515625 C10.35356033 53.94984879 10.35165192 55.04813507 10.34968567 56.17970276 C10.4748816 64.15611687 11.77879186 71.32094064 16.82421875 77.71875 C24.02194532 83.47986312 30.71294598 86.42100045 40.06787109 86.45825195 C41.56500137 86.46880363 41.56500137 86.46880363 43.09237671 86.47956848 C44.16017365 86.48373276 45.22797058 86.48789703 46.328125 86.4921875 C48.60417596 86.5153817 50.88021766 86.53949887 53.15625 86.56445312 C56.73313641 86.59957361 60.30968079 86.62892497 63.88671875 86.64233398 C67.34677115 86.65783174 70.80583478 86.69804687 74.265625 86.7421875 C75.86124771 86.73932487 75.86124771 86.73932487 77.48910522 86.73640442 C83.84269853 86.84072304 87.77192312 87.51334113 92.9296875 91.31640625 C96.88446186 96.28522532 97.57700557 100.35205546 97.30859375 106.6640625 C96.53841001 112.0553487 94.50176232 115.11329471 90.10961914 118.47460938 C84.66355088 121.42960388 78.65073296 120.88732326 72.61328125 120.84765625 C70.6802993 120.85339661 70.6802993 120.85339661 68.70826721 120.85925293 C65.98394501 120.86513118 63.26014931 120.85665025 60.53588867 120.83789062 C57.08546712 120.81526027 53.63630149 120.82813093 50.18592739 120.85218048 C46.84911906 120.87034286 43.51262495 120.85751441 40.17578125 120.84765625 C38.34846718 120.85980164 38.34846718 120.85980164 36.48423767 120.87219238 C20.98429141 120.70623255 6.20676912 115.78949962 -5.35546875 105.16015625 C-19.05915118 90.42635647 -24.5565738 74.22662013 -24.50390625 54.296875 C-24.5091481 53.11346024 -24.51438995 51.93004547 -24.51979065 50.71076965 C-24.52616236 48.23272481 -24.52493755 45.75464951 -24.51635742 43.27661133 C-24.50779394 39.49571205 -24.53676534 35.71629961 -24.56835938 31.93554688 C-24.56997044 29.51432337 -24.56939568 27.0930972 -24.56640625 24.671875 C-24.57764023 23.55088913 -24.58887421 22.42990326 -24.60044861 21.27494812 C-24.54032421 14.49031473 -23.70700762 10.08983177 -20.0703125 4.31640625 C-14.49000478 -0.99169134 -7.39928197 -2.44315914 0 0 Z " fill="#ffffff" transform="translate(88.0703125,327.68359375)"/>
<path d="M0 0 C5.28410649 2.75642784 8.08002087 6.76740637 9.9296875 12.31640625 C10.03715153 14.02588093 10.08840531 15.73915274 10.10668945 17.4519043 C10.12594231 19.02581184 10.12594231 19.02581184 10.14558411 20.6315155 C10.15297104 21.76889664 10.16035797 22.90627777 10.16796875 24.078125 C10.1760405 25.25671585 10.18411224 26.4353067 10.19242859 27.64961243 C10.2062777 30.15384449 10.21699614 32.65809549 10.22485352 35.16235352 C10.23630474 37.70017096 10.2566457 40.23796565 10.28637695 42.77563477 C10.56202255 66.30406556 9.06098657 86.46409291 -8.0703125 104.31640625 C-21.68390102 116.40666121 -35.88958856 120.62055682 -53.73046875 120.65234375 C-55.03431015 120.65900055 -56.33815155 120.66565735 -57.6815033 120.67251587 C-60.42906004 120.68442855 -63.17649156 120.68820259 -65.92407227 120.68701172 C-69.42998215 120.68680805 -72.93508586 120.71418542 -76.44080448 120.74855614 C-79.80820394 120.77623257 -83.17545716 120.77497506 -86.54296875 120.77734375 C-87.79417007 120.79171478 -89.0453714 120.80608582 -90.33448792 120.82089233 C-97.12219441 120.78534318 -101.61954658 120.5160135 -107.0703125 116.31640625 C-111.02508686 111.34758718 -111.71763057 107.28075704 -111.44921875 100.96875 C-110.84649205 96.74966307 -109.74912151 94.68208936 -107.0703125 91.31640625 C-101.01567078 86.85967813 -95.95297902 86.75495293 -88.58203125 86.8125 C-87.48365433 86.80307877 -86.3852774 86.79365753 -85.25361633 86.78395081 C-81.75482413 86.75537232 -78.25671175 86.7522191 -74.7578125 86.75390625 C-71.26972412 86.75028565 -67.78213007 86.74059476 -64.29414368 86.71315002 C-62.1293199 86.69651055 -59.96433417 86.69336696 -57.79948425 86.7061615 C-48.69625966 86.64335656 -40.30098802 85.20183982 -33.0703125 79.31640625 C-25.34779416 71.41429446 -24.63991619 63.7471882 -24.69921875 53.22265625 C-24.68184165 50.86979017 -24.66425721 48.51692562 -24.64648438 46.1640625 C-24.63640858 42.48418409 -24.63281806 38.80440337 -24.63452148 35.12451172 C-24.63094354 31.55276825 -24.60357837 27.9817671 -24.57421875 24.41015625 C-24.58240128 23.31723267 -24.5905838 22.22430908 -24.59901428 21.0982666 C-24.53662725 14.66610994 -23.85242621 9.65345782 -20.0703125 4.31640625 C-14.49000478 -0.99169134 -7.39928197 -2.44315914 0 0 Z " fill="#ffffff" transform="translate(438.0703125,327.68359375)"/>
<path d="M0 0 C1.93298195 -0.00574036 1.93298195 -0.00574036 3.90501404 -0.01159668 C6.62933624 -0.01747493 9.35313194 -0.008994 12.07739258 0.00976562 C15.52781413 0.03239598 18.97697976 0.01952532 22.42735386 -0.00452423 C25.76416219 -0.02268661 29.1006563 -0.00985816 32.4375 0 C33.65570938 -0.00809692 34.87391876 -0.01619385 36.12904358 -0.02453613 C51.62898984 0.1414237 66.40651213 5.05815663 77.96875 15.6875 C91.67243243 30.42129978 97.16985505 46.62103612 97.1171875 66.55078125 C97.12242935 67.73419601 97.1276712 68.91761078 97.1330719 70.1368866 C97.13944361 72.61493144 97.1382188 75.09300674 97.12963867 77.57104492 C97.12107519 81.3519442 97.15004659 85.13135664 97.18164062 88.91210938 C97.18325169 91.33333288 97.18267693 93.75455905 97.1796875 96.17578125 C97.19092148 97.29676712 97.20215546 98.41775299 97.21372986 99.57270813 C97.15360546 106.35734152 96.32028887 110.75782448 92.68359375 116.53125 C87.82320049 121.15455091 83.75735919 121.89391602 77.25390625 121.80859375 C73.09835129 121.360198 71.0264087 120.07178936 67.68359375 117.53125 C64.05687255 112.85468845 62.56430443 109.34914837 62.54174805 103.48413086 C62.53119637 101.94123634 62.53119637 101.94123634 62.52043152 100.36717224 C62.51626724 99.25471634 62.51210297 98.14226044 62.5078125 96.99609375 C62.48460237 94.63605891 62.46048456 92.27603285 62.43554688 89.91601562 C62.40052841 86.19891585 62.37114228 82.48213673 62.35766602 78.76489258 C62.34210626 75.17489711 62.30183128 71.58583887 62.2578125 67.99609375 C62.25972092 66.89780746 62.26162933 65.79952118 62.26359558 64.66795349 C62.13849818 56.6978169 60.85906779 49.48452234 55.75390625 43.12890625 C46.04736664 35.4689262 38.29433002 34.40291322 26.1875 34.35546875 C23.9147042 34.33227812 21.6419177 34.3081611 19.36914062 34.28320312 C15.80323983 34.24806747 12.23768393 34.21871841 8.67163086 34.20532227 C5.21816918 34.18982734 1.76569883 34.1496196 -1.6875 34.10546875 C-2.74811142 34.10737717 -3.80872284 34.10928558 -4.901474 34.11125183 C-11.24611888 34.00674429 -15.16490442 33.32684456 -20.31640625 29.53125 C-24.27118061 24.56243093 -24.96372432 20.49560079 -24.6953125 14.18359375 C-23.92512876 8.79230755 -21.88848107 5.73436154 -17.49633789 2.37304688 C-12.05026963 -0.58194763 -6.03745171 -0.03966701 0 0 Z " fill="#ffffff" transform="translate(351.31640625,63.46875)"/>
<path d="M0 0 C1.3038414 -0.0066568 2.6076828 -0.0133136 3.95103455 -0.02017212 C6.69859129 -0.0320848 9.44602281 -0.03585884 12.19360352 -0.03466797 C15.6995134 -0.0344643 19.20461711 -0.06184167 22.71033573 -0.09621239 C26.07773519 -0.12388882 29.44498841 -0.12263131 32.8125 -0.125 C34.06370132 -0.13937103 35.31490265 -0.15374207 36.60401917 -0.16854858 C43.39172566 -0.13299943 47.88907783 0.13633025 53.33984375 4.3359375 C57.25523343 9.25527326 58.03871788 13.35467907 57.7890625 19.61328125 C57.08157316 23.90128186 55.44098031 27.27807261 52.33984375 30.3359375 C46.71777106 34.0451034 41.37791599 33.77663334 34.87890625 33.77734375 C33.77437103 33.79055161 32.66983582 33.80375946 31.53182983 33.81736755 C28.00947552 33.85817189 24.48738048 33.87990037 20.96484375 33.8984375 C17.44952847 33.92229383 13.93445487 33.95054492 10.41928101 33.99021912 C8.23563031 34.01439754 6.05185257 34.02940087 3.86807251 34.03382874 C-7.11460384 34.14558345 -15.54328408 36.21906533 -23.47265625 44.1484375 C-28.69573371 51.75920752 -29.08185983 58.44787079 -29.03125 67.4296875 C-29.0486271 69.78255358 -29.06621154 72.13541813 -29.08398438 74.48828125 C-29.09406017 78.16815966 -29.09765069 81.84794038 -29.09594727 85.52783203 C-29.09952521 89.0995755 -29.12689038 92.67057665 -29.15625 96.2421875 C-29.14806747 97.33511108 -29.13988495 98.42803467 -29.13145447 99.55407715 C-29.1938415 105.98623381 -29.87804254 110.99888593 -33.66015625 116.3359375 C-38.52054951 120.95923841 -42.58639081 121.69860352 -49.08984375 121.61328125 C-53.24539871 121.1648855 -55.3173413 119.87647686 -58.66015625 117.3359375 C-62.30941703 112.63031176 -63.77420715 109.09732704 -63.8371582 103.20043945 C-63.84999344 102.15116776 -63.86282867 101.10189606 -63.87605286 100.02082825 C-63.88343979 98.88344711 -63.89082672 97.74606598 -63.8984375 96.57421875 C-63.90650925 95.3956279 -63.91458099 94.21703705 -63.92289734 93.00273132 C-63.93674645 90.49849926 -63.94746489 87.99424826 -63.95532227 85.48999023 C-63.96677349 82.95217279 -63.98711445 80.4143781 -64.0168457 77.87670898 C-64.2924913 54.34827819 -62.79145532 34.18825084 -45.66015625 16.3359375 C-32.04656773 4.24568254 -17.84088019 0.03178693 0 0 Z " fill="#ffffff" transform="translate(127.66015625,63.6640625)"/>
</svg>
